<svg xmlns="http://www.w3.org/2000/svg" version="1.1" xmlns:xlink="http://www.w3.org/1999/xlink" width="18" height="18" x="0" y="0" viewBox="0 0 512 512" style="enable-background:new 0 0 512 512" xml:space="preserve">
    <g>
        <path d="M69.12 4.267c-18.773 0-35.84 6.827-48.64 19.627C6.827 37.547 0 54.613 0 72.533c0 18.773 7.68 35.84 20.48 48.64 12.8 12.8 30.72 20.48 47.787 19.627h1.707c17.067 0 33.28-6.827 46.08-19.627 12.8-12.8 20.48-29.867 20.48-48.64.853-17.92-6.827-34.987-19.627-47.787C104.107 11.093 87.04 4.267 69.12 4.267zm34.987 104.96c-9.387 9.387-22.187 15.36-35.84 14.507-12.8 0-26.453-5.12-35.84-14.507-10.24-9.387-15.36-23.04-15.36-36.693s5.12-26.453 15.36-36.693c9.387-9.387 22.187-14.507 36.693-14.507 12.8 0 25.6 5.12 34.987 14.507 10.24 10.24 15.36 23.04 15.36 36.693s-5.12 27.306-15.36 36.693zM102.4 157.867H33.28c-13.653 0-24.747 11.093-24.747 25.6v298.667c0 13.653 11.947 25.6 25.6 25.6H102.4c13.653 0 25.6-11.947 25.6-24.747v-299.52c0-13.654-11.947-25.6-25.6-25.6zm8.533 325.12c0 4.267-4.267 7.68-8.533 7.68H34.133c-4.267 0-8.533-4.267-8.533-8.533V183.467c0-4.267 3.413-8.533 7.68-8.533h69.12c4.267 0 8.533 4.267 8.533 8.533v299.52zM392.533 149.333h-17.92c-33.28 0-64.853 14.507-85.333 37.547v-11.947c0-8.533-8.533-17.067-17.067-17.067H186.88c-7.68 0-17.067 6.827-17.067 16.213v318.293c0 9.387 9.387 15.36 17.067 15.36h93.867c7.68 0 17.067-5.973 17.067-15.36v-184.32c0-28.16 20.48-50.347 46.933-50.347 13.653 0 26.453 5.12 35.84 14.507 8.533 7.68 11.947 19.627 11.947 34.987v183.467c0 8.533 8.533 17.067 17.067 17.067h85.333c8.533 0 17.067-8.533 17.067-17.067v-220.16C512 202.24 459.947 149.333 392.533 149.333zm102.4 340.48-.853.853h-83.627L409.6 307.2c0-20.48-5.12-35.84-16.213-46.933-12.8-12.8-29.867-19.627-47.787-19.627-35.84.853-64 29.867-64 67.413v182.613h-93.867V174.933h84.48l.853.853v53.76l23.04-23.04.853-.853c17.067-23.893 46.933-39.253 78.507-39.253h17.92c57.173 0 101.547 46.08 101.547 104.107v219.306z" fill="#ffffff" opacity="1" />
    </g>
</svg>
